<svg xmlns="http://www.w3.org/2000/svg" xmlns:xlink="http://www.w3.org/1999/xlink"
    style="margin:auto;display:block;z-index:1;position:relative"
    preserveAspectRatio="xMidYMid" viewBox="0 0 1600 987">
    <g transform="translate(800,493.5) scale(1,1) translate(-800,-493.5)">
        <linearGradient id="lg-0.2893839105488454" x1="0" x2="1" y1="0" y2="0">
            <stop stop-color="#ff66fc" offset="0"></stop>
            <stop stop-color="#4de4ff" offset="1"></stop>
        </linearGradient>
        <path
            d="M 1279 494 C 1279 564 1288 724 1250 783 C 1212 842 1047 864 983 893 C 919 922 812 905 742 895 C 672 885 575 861 522 815 C 469 769 317 709 297 641 C 277 573 201 390 221 323 C 241 256 447 193 500 147 C 553 101 678 139 748 129 C 818 119 915 73 979 102 C 1043 131 1234 131 1272 190 C 1310 249 1279 424 1279 494"
            fill="url(#lg-0.2893839105488454)" opacity="0.27">
            <animate attributeName="d" dur="6.666666666666666s" repeatCount="indefinite"
                keyTimes="0;0.3333333333333333;0.6666666666666666;1" calcmod="spline"
                keySplines="0.3 0.1 0.7 0.9;0.3 0.1 0.7 0.9;0.3 0.1 0.7 0.9"
                begin="-2.222222222222222s"
                values="M 1279 494 C 1279 564 1288 724 1250 783 C 1212 842 1047 864 983 893 C 919 922 812 905 742 895 C 672 885 575 861 522 815 C 469 769 317 709 297 641 C 277 573 201 390 221 323 C 241 256 447 193 500 147 C 553 101 678 139 748 129 C 818 119 915 73 979 102 C 1043 131 1234 131 1272 190 C 1310 249 1279 424 1279 494;M 1315 494 C 1315 562 1279 721 1242 778 C 1205 835 1047 871 985 899 C 923 927 822 819 755 809 C 688 799 562 873 510 828 C 458 783 374 689 355 624 C 336 559 239 399 258 334 C 277 269 445 189 497 144 C 549 99 681 140 748 130 C 815 120 917 74 979 102 C 1041 130 1187 164 1224 221 C 1261 278 1315 426 1315 494;M 1316 494 C 1316 559 1210 680 1175 735 C 1140 790 1040 863 981 890 C 922 917 812 874 747 865 C 682 856 559 871 510 828 C 461 785 312 705 294 642 C 276 579 316 420 334 357 C 352 294 430 167 479 124 C 528 81 692 200 757 191 C 822 182 919 77 978 104 C 1037 131 1146 193 1181 248 C 1216 303 1316 429 1316 494;M 1279 494 C 1279 564 1288 724 1250 783 C 1212 842 1047 864 983 893 C 919 922 812 905 742 895 C 672 885 575 861 522 815 C 469 769 317 709 297 641 C 277 573 201 390 221 323 C 241 256 447 193 500 147 C 553 101 678 139 748 129 C 818 119 915 73 979 102 C 1043 131 1234 131 1272 190 C 1310 249 1279 424 1279 494"></animate>
        </path>
        <path
            d="M 1360 494 C 1360 562 1278 719 1241 777 C 1204 835 1051 879 989 907 C 927 935 813 884 745 874 C 677 864 573 861 521 816 C 469 771 296 713 277 647 C 258 581 338 429 357 363 C 376 297 402 139 454 94 C 506 49 675 107 743 97 C 811 87 906 97 968 125 C 1030 153 1149 188 1186 246 C 1223 304 1360 426 1360 494"
            fill="url(#lg-0.2893839105488454)" opacity="0.27">
            <animate attributeName="d" dur="6.666666666666666s" repeatCount="indefinite"
                keyTimes="0;0.3333333333333333;0.6666666666666666;1" calcmod="spline"
                keySplines="0.3 0.1 0.7 0.9;0.3 0.1 0.7 0.9;0.3 0.1 0.7 0.9"
                begin="-2.222222222222222s"
                values="M 1360 494 C 1360 562 1278 719 1241 777 C 1204 835 1051 879 989 907 C 927 935 813 884 745 874 C 677 864 573 861 521 816 C 469 771 296 713 277 647 C 258 581 338 429 357 363 C 376 297 402 139 454 94 C 506 49 675 107 743 97 C 811 87 906 97 968 125 C 1030 153 1149 188 1186 246 C 1223 304 1360 426 1360 494;M 1341 494 C 1341 561 1289 729 1253 785 C 1217 841 1020 814 959 842 C 898 870 824 797 758 788 C 692 779 522 916 472 872 C 422 828 388 684 369 620 C 350 556 334 426 353 362 C 372 298 458 201 508 157 C 558 113 677 103 743 94 C 809 85 905 102 966 130 C 1027 158 1200 157 1236 213 C 1272 269 1341 427 1341 494;M 1408 494 C 1408 564 1260 706 1222 765 C 1184 824 1034 838 970 867 C 906 896 825 807 756 797 C 687 787 585 849 532 803 C 479 757 259 725 239 658 C 219 591 219 396 239 329 C 259 262 437 182 490 136 C 543 90 676 123 745 113 C 814 103 906 92 970 121 C 1034 150 1242 126 1280 185 C 1318 244 1408 424 1408 494;M 1360 494 C 1360 562 1278 719 1241 777 C 1204 835 1051 879 989 907 C 927 935 813 884 745 874 C 677 864 573 861 521 816 C 469 771 296 713 277 647 C 258 581 338 429 357 363 C 376 297 402 139 454 94 C 506 49 675 107 743 97 C 811 87 906 97 968 125 C 1030 153 1149 188 1186 246 C 1223 304 1360 426 1360 494"></animate>
        </path>
        <path
            d="M 1321 494 C 1321 565 1272 712 1234 772 C 1196 832 1017 798 952 827 C 887 856 825 815 755 805 C 685 795 527 917 473 870 C 419 823 316 710 296 642 C 276 574 300 420 320 352 C 340 284 390 129 444 83 C 498 37 680 158 750 148 C 820 138 931 34 996 63 C 1061 92 1182 164 1220 224 C 1258 284 1321 423 1321 494"
            fill="url(#lg-0.2893839105488454)" opacity="0.27">
            <animate attributeName="d" dur="6.666666666666666s" repeatCount="indefinite"
                keyTimes="0;0.3333333333333333;0.6666666666666666;1" calcmod="spline"
                keySplines="0.3 0.1 0.7 0.9;0.3 0.1 0.7 0.9;0.3 0.1 0.7 0.9"
                begin="-2.222222222222222s"
                values="M 1321 494 C 1321 565 1272 712 1234 772 C 1196 832 1017 798 952 827 C 887 856 825 815 755 805 C 685 795 527 917 473 870 C 419 823 316 710 296 642 C 276 574 300 420 320 352 C 340 284 390 129 444 83 C 498 37 680 158 750 148 C 820 138 931 34 996 63 C 1061 92 1182 164 1220 224 C 1258 284 1321 423 1321 494;M 1344 494 C 1344 562 1302 735 1265 793 C 1228 851 1026 824 964 852 C 902 880 808 921 740 911 C 672 901 575 858 523 813 C 471 768 293 714 274 648 C 255 582 226 397 245 331 C 264 265 428 170 480 125 C 532 80 672 83 740 73 C 808 63 899 113 961 141 C 1023 169 1201 154 1238 212 C 1275 270 1344 426 1344 494;M 1315 494 C 1315 559 1247 704 1212 758 C 1177 812 1012 802 953 829 C 894 856 815 846 751 837 C 687 828 532 902 483 860 C 434 818 294 709 276 647 C 258 585 351 429 369 367 C 387 305 489 233 538 191 C 587 149 694 209 758 200 C 822 191 905 108 964 135 C 1023 162 1205 157 1240 211 C 1275 265 1315 429 1315 494;M 1321 494 C 1321 565 1272 712 1234 772 C 1196 832 1017 798 952 827 C 887 856 825 815 755 805 C 685 795 527 917 473 870 C 419 823 316 710 296 642 C 276 574 300 420 320 352 C 340 284 390 129 444 83 C 498 37 680 158 750 148 C 820 138 931 34 996 63 C 1061 92 1182 164 1220 224 C 1258 284 1321 423 1321 494"></animate>
        </path>
        <path
            d="M 1324 494 C 1324 559 1194 670 1159 725 C 1124 780 1036 855 977 882 C 918 909 814 848 750 839 C 686 830 530 905 481 862 C 432 819 386 682 368 620 C 350 558 335 424 353 362 C 371 300 473 215 522 172 C 571 129 680 112 744 103 C 808 94 913 91 972 118 C 1031 145 1146 194 1181 249 C 1216 304 1324 429 1324 494"
            fill="url(#lg-0.2893839105488454)" opacity="0.27">
            <animate attributeName="d" dur="6.666666666666666s" repeatCount="indefinite"
                keyTimes="0;0.3333333333333333;0.6666666666666666;1" calcmod="spline"
                keySplines="0.3 0.1 0.7 0.9;0.3 0.1 0.7 0.9;0.3 0.1 0.7 0.9"
                begin="-2.222222222222222s"
                values="M 1324 494 C 1324 559 1194 670 1159 725 C 1124 780 1036 855 977 882 C 918 909 814 848 750 839 C 686 830 530 905 481 862 C 432 819 386 682 368 620 C 350 558 335 424 353 362 C 371 300 473 215 522 172 C 571 129 680 112 744 103 C 808 94 913 91 972 118 C 1031 145 1146 194 1181 249 C 1216 304 1324 429 1324 494;M 1326 494 C 1326 563 1248 699 1211 757 C 1174 815 1060 895 997 924 C 934 953 816 866 748 856 C 680 846 521 921 469 876 C 417 831 283 717 264 651 C 245 585 254 405 273 339 C 292 273 443 186 495 141 C 547 96 675 109 743 99 C 811 89 921 61 984 90 C 1047 119 1185 164 1222 222 C 1259 280 1326 425 1326 494;M 1395 494 C 1395 564 1283 720 1245 779 C 1207 838 1026 822 963 851 C 900 880 814 883 745 873 C 676 863 549 890 496 844 C 443 798 313 709 293 642 C 273 575 300 420 320 353 C 340 286 467 216 520 170 C 573 124 670 82 739 72 C 808 62 891 126 954 155 C 1017 184 1135 195 1173 254 C 1211 313 1395 424 1395 494;M 1324 494 C 1324 559 1194 670 1159 725 C 1124 780 1036 855 977 882 C 918 909 814 848 750 839 C 686 830 530 905 481 862 C 432 819 386 682 368 620 C 350 558 335 424 353 362 C 371 300 473 215 522 172 C 571 129 680 112 744 103 C 808 94 913 91 972 118 C 1031 145 1146 194 1181 249 C 1216 304 1324 429 1324 494"></animate>
        </path>
        <path
            d="M 1315 494 C 1315 560 1234 695 1198 750 C 1162 805 1001 776 941 803 C 881 830 823 796 758 787 C 693 778 566 864 516 821 C 466 778 281 715 262 652 C 243 589 248 400 266 337 C 284 274 476 220 526 177 C 576 134 680 118 745 109 C 810 100 880 160 940 187 C 1000 214 1131 202 1167 257 C 1203 312 1315 428 1315 494"
            fill="url(#lg-0.2893839105488454)" opacity="0.27">
            <animate attributeName="d" dur="6.666666666666666s" repeatCount="indefinite"
                keyTimes="0;0.3333333333333333;0.6666666666666666;1" calcmod="spline"
                keySplines="0.3 0.1 0.7 0.9;0.3 0.1 0.7 0.9;0.3 0.1 0.7 0.9"
                begin="-2.222222222222222s"
                values="M 1315 494 C 1315 560 1234 695 1198 750 C 1162 805 1001 776 941 803 C 881 830 823 796 758 787 C 693 778 566 864 516 821 C 466 778 281 715 262 652 C 243 589 248 400 266 337 C 284 274 476 220 526 177 C 576 134 680 118 745 109 C 810 100 880 160 940 187 C 1000 214 1131 202 1167 257 C 1203 312 1315 428 1315 494;M 1278 494 C 1278 558 1254 709 1219 763 C 1184 817 1035 851 976 878 C 917 905 823 790 759 781 C 695 772 599 824 550 782 C 501 740 359 690 341 628 C 323 566 278 407 296 345 C 314 283 481 224 530 182 C 579 140 694 211 758 202 C 822 193 924 66 983 93 C 1042 120 1172 178 1207 232 C 1242 286 1278 430 1278 494;M 1261 494 C 1261 559 1291 732 1256 787 C 1221 842 1020 817 960 844 C 900 871 815 850 750 841 C 685 832 560 870 511 827 C 462 784 308 706 290 643 C 272 580 255 402 273 339 C 291 276 447 185 496 142 C 545 99 685 157 750 148 C 815 139 882 158 941 185 C 1000 212 1174 175 1209 230 C 1244 285 1261 429 1261 494;M 1315 494 C 1315 560 1234 695 1198 750 C 1162 805 1001 776 941 803 C 881 830 823 796 758 787 C 693 778 566 864 516 821 C 466 778 281 715 262 652 C 243 589 248 400 266 337 C 284 274 476 220 526 177 C 576 134 680 118 745 109 C 810 100 880 160 940 187 C 1000 214 1131 202 1167 257 C 1203 312 1315 428 1315 494"></animate>
        </path>
        <path
            d="M 1419 494 C 1419 566 1230 684 1191 745 C 1152 806 1039 842 973 872 C 907 902 815 898 743 888 C 671 878 529 917 474 870 C 419 823 346 702 326 633 C 306 564 291 419 311 350 C 331 281 384 124 439 77 C 494 30 666 74 738 64 C 810 54 901 99 967 129 C 1033 159 1170 169 1209 230 C 1248 291 1419 422 1419 494"
            fill="url(#lg-0.2893839105488454)" opacity="0.27">
            <animate attributeName="d" dur="6.666666666666666s" repeatCount="indefinite"
                keyTimes="0;0.3333333333333333;0.6666666666666666;1" calcmod="spline"
                keySplines="0.3 0.1 0.7 0.9;0.3 0.1 0.7 0.9;0.3 0.1 0.7 0.9"
                begin="-2.222222222222222s"
                values="M 1419 494 C 1419 566 1230 684 1191 745 C 1152 806 1039 842 973 872 C 907 902 815 898 743 888 C 671 878 529 917 474 870 C 419 823 346 702 326 633 C 306 564 291 419 311 350 C 331 281 384 124 439 77 C 494 30 666 74 738 64 C 810 54 901 99 967 129 C 1033 159 1170 169 1209 230 C 1248 291 1419 422 1419 494;M 1402 494 C 1402 566 1326 747 1287 807 C 1248 867 1061 892 996 922 C 931 952 815 890 744 880 C 673 870 579 858 525 811 C 471 764 351 700 331 631 C 311 562 283 417 303 348 C 323 279 388 127 442 80 C 496 33 677 140 748 130 C 819 120 944 6 1009 36 C 1074 66 1170 171 1209 231 C 1248 291 1402 422 1402 494;M 1369 494 C 1369 562 1280 721 1243 778 C 1206 835 1055 889 993 917 C 931 945 825 796 758 786 C 691 776 507 936 456 891 C 405 846 283 716 264 651 C 245 586 237 399 256 334 C 275 269 432 173 483 128 C 534 83 690 204 757 194 C 824 184 894 124 956 152 C 1018 180 1183 166 1220 223 C 1257 280 1369 426 1369 494;M 1419 494 C 1419 566 1230 684 1191 745 C 1152 806 1039 842 973 872 C 907 902 815 898 743 888 C 671 878 529 917 474 870 C 419 823 346 702 326 633 C 306 564 291 419 311 350 C 331 281 384 124 439 77 C 494 30 666 74 738 64 C 810 54 901 99 967 129 C 1033 159 1170 169 1209 230 C 1248 291 1419 422 1419 494"></animate>
        </path>
    </g>
</svg>