<svg xmlns="http://www.w3.org/2000/svg" xmlns:xlink="http://www.w3.org/1999/xlink"
    style="margin:auto;background:#ffffff;display:block;z-index:1;position:relative"
    preserveAspectRatio="xMidYMid" viewBox="0 0 1429 987">
    <g transform="translate(714.5,493.5) scale(1,1) translate(-714.5,-493.5)">
        <linearGradient id="lg-0.23482163319266358" x1="0" x2="1" y1="0" y2="0">
            <stop stop-color="#00ffff" offset="0"></stop>
            <stop stop-color="#ff00ff" offset="1"></stop>
        </linearGradient>
        <path
            d="M 1349 494 C 1349 595 1168 805 1097 876 C 1026 947 816 802 715 802 C 614 802 468 882 397 811 C 326 740 212 595 212 494 C 212 393 307 228 378 157 C 449 86 613 83 714 83 C 815 83 977 89 1048 160 C 1119 231 1349 393 1349 494"
            fill="url(#lg-0.23482163319266358)" opacity="0.28">
            <animate attributeName="d" dur="10s" repeatCount="indefinite"
                keyTimes="0;0.3333333333333333;0.6666666666666666;1" calcmod="spline"
                keySplines="0.3 0.1 0.7 0.9;0.3 0.1 0.7 0.9;0.3 0.1 0.7 0.9" begin="-4s"
                values="M 1349 494 C 1349 595 1168 805 1097 876 C 1026 947 816 802 715 802 C 614 802 468 882 397 811 C 326 740 212 595 212 494 C 212 393 307 228 378 157 C 449 86 613 83 714 83 C 815 83 977 89 1048 160 C 1119 231 1349 393 1349 494;M 1269 494 C 1269 596 1190 825 1118 897 C 1046 969 817 895 715 895 C 613 895 436 916 364 844 C 292 772 95 596 95 494 C 95 392 296 219 368 147 C 440 75 612 141 714 141 C 816 141 1040 24 1112 96 C 1184 168 1269 392 1269 494;M 1276 494 C 1276 583 1074 727 1011 790 C 948 853 804 858 715 858 C 626 858 436 898 373 835 C 310 772 171 583 171 494 C 171 405 372 277 435 214 C 498 151 625 139 714 139 C 803 139 958 124 1021 187 C 1084 250 1276 405 1276 494;M 1349 494 C 1349 595 1168 805 1097 876 C 1026 947 816 802 715 802 C 614 802 468 882 397 811 C 326 740 212 595 212 494 C 212 393 307 228 378 157 C 449 86 613 83 714 83 C 815 83 977 89 1048 160 C 1119 231 1349 393 1349 494"></animate>
        </path>
        <path
            d="M 1202 494 C 1202 585 1098 749 1034 813 C 970 877 806 793 715 793 C 624 793 453 883 389 819 C 325 755 213 585 213 494 C 213 403 330 237 394 173 C 458 109 623 183 714 183 C 805 183 931 149 995 213 C 1059 277 1202 403 1202 494"
            fill="url(#lg-0.23482163319266358)" opacity="0.28">
            <animate attributeName="d" dur="10s" repeatCount="indefinite"
                keyTimes="0;0.3333333333333333;0.6666666666666666;1" calcmod="spline"
                keySplines="0.3 0.1 0.7 0.9;0.3 0.1 0.7 0.9;0.3 0.1 0.7 0.9" begin="-4s"
                values="M 1202 494 C 1202 585 1098 749 1034 813 C 970 877 806 793 715 793 C 624 793 453 883 389 819 C 325 755 213 585 213 494 C 213 403 330 237 394 173 C 458 109 623 183 714 183 C 805 183 931 149 995 213 C 1059 277 1202 403 1202 494;M 1251 494 C 1251 580 1100 757 1039 818 C 978 879 801 791 715 791 C 629 791 434 896 373 835 C 312 774 238 580 238 494 C 238 408 345 246 406 185 C 467 124 629 200 715 200 C 801 200 962 124 1023 185 C 1084 246 1251 408 1251 494;M 1228 494 C 1228 587 1078 725 1012 791 C 946 857 808 792 715 792 C 622 792 404 936 338 870 C 272 804 230 587 230 494 C 230 401 357 268 423 202 C 489 136 621 136 714 136 C 807 136 1004 72 1070 138 C 1136 204 1228 401 1228 494;M 1202 494 C 1202 585 1098 749 1034 813 C 970 877 806 793 715 793 C 624 793 453 883 389 819 C 325 755 213 585 213 494 C 213 403 330 237 394 173 C 458 109 623 183 714 183 C 805 183 931 149 995 213 C 1059 277 1202 403 1202 494"></animate>
        </path>
        <path
            d="M 1228 494 C 1228 593 1090 729 1020 799 C 950 869 814 792 715 792 C 616 792 416 932 346 862 C 276 792 178 593 178 494 C 178 395 259 178 329 108 C 399 38 615 112 714 112 C 813 112 1001 67 1071 137 C 1141 207 1228 395 1228 494"
            fill="url(#lg-0.23482163319266358)" opacity="0.28">
            <animate attributeName="d" dur="10s" repeatCount="indefinite"
                keyTimes="0;0.3333333333333333;0.6666666666666666;1" calcmod="spline"
                keySplines="0.3 0.1 0.7 0.9;0.3 0.1 0.7 0.9;0.3 0.1 0.7 0.9" begin="-4s"
                values="M 1228 494 C 1228 593 1090 729 1020 799 C 950 869 814 792 715 792 C 616 792 416 932 346 862 C 276 792 178 593 178 494 C 178 395 259 178 329 108 C 399 38 615 112 714 112 C 813 112 1001 67 1071 137 C 1141 207 1228 395 1228 494;M 1232 494 C 1232 596 1116 751 1044 823 C 972 895 817 926 715 926 C 613 926 415 937 343 865 C 271 793 101 596 101 494 C 101 392 260 183 332 111 C 404 39 612 79 714 79 C 816 79 1036 28 1108 100 C 1180 172 1232 392 1232 494;M 1277 494 C 1277 586 1067 716 1002 781 C 937 846 807 815 715 815 C 623 815 483 855 418 790 C 353 725 251 586 251 494 C 251 402 326 235 391 170 C 456 105 623 204 715 204 C 807 204 1003 75 1068 140 C 1133 205 1277 402 1277 494;M 1228 494 C 1228 593 1090 729 1020 799 C 950 869 814 792 715 792 C 616 792 416 932 346 862 C 276 792 178 593 178 494 C 178 395 259 178 329 108 C 399 38 615 112 714 112 C 813 112 1001 67 1071 137 C 1141 207 1228 395 1228 494"></animate>
        </path>
        <path
            d="M 1186 494 C 1186 579 1039 698 979 758 C 919 818 800 837 715 837 C 630 837 437 891 377 831 C 317 771 224 579 224 494 C 224 409 392 291 452 231 C 512 171 629 163 714 163 C 799 163 986 102 1046 162 C 1106 222 1186 409 1186 494"
            fill="url(#lg-0.23482163319266358)" opacity="0.28">
            <animate attributeName="d" dur="10s" repeatCount="indefinite"
                keyTimes="0;0.3333333333333333;0.6666666666666666;1" calcmod="spline"
                keySplines="0.3 0.1 0.7 0.9;0.3 0.1 0.7 0.9;0.3 0.1 0.7 0.9" begin="-4s"
                values="M 1186 494 C 1186 579 1039 698 979 758 C 919 818 800 837 715 837 C 630 837 437 891 377 831 C 317 771 224 579 224 494 C 224 409 392 291 452 231 C 512 171 629 163 714 163 C 799 163 986 102 1046 162 C 1106 222 1186 409 1186 494;M 1159 494 C 1159 581 1061 718 1000 779 C 939 840 802 781 715 781 C 628 781 458 872 397 811 C 336 750 193 581 193 494 C 193 407 366 267 427 206 C 488 145 628 203 715 203 C 802 203 923 163 984 224 C 1045 285 1159 407 1159 494;M 1260 494 C 1260 586 1132 781 1067 846 C 1002 911 807 840 715 840 C 623 840 461 877 396 812 C 331 747 252 586 252 494 C 252 402 274 183 339 118 C 404 53 622 109 714 109 C 806 109 947 131 1012 196 C 1077 261 1260 402 1260 494;M 1186 494 C 1186 579 1039 698 979 758 C 919 818 800 837 715 837 C 630 837 437 891 377 831 C 317 771 224 579 224 494 C 224 409 392 291 452 231 C 512 171 629 163 714 163 C 799 163 986 102 1046 162 C 1106 222 1186 409 1186 494"></animate>
        </path>
        <path
            d="M 1246 494 C 1246 584 1090 741 1026 805 C 962 869 805 792 715 792 C 625 792 459 877 395 813 C 331 749 145 584 145 494 C 145 404 317 224 381 160 C 445 96 624 129 714 129 C 804 129 987 93 1051 157 C 1115 221 1246 404 1246 494"
            fill="url(#lg-0.23482163319266358)" opacity="0.28">
            <animate attributeName="d" dur="10s" repeatCount="indefinite"
                keyTimes="0;0.3333333333333333;0.6666666666666666;1" calcmod="spline"
                keySplines="0.3 0.1 0.7 0.9;0.3 0.1 0.7 0.9;0.3 0.1 0.7 0.9" begin="-4s"
                values="M 1246 494 C 1246 584 1090 741 1026 805 C 962 869 805 792 715 792 C 625 792 459 877 395 813 C 331 749 145 584 145 494 C 145 404 317 224 381 160 C 445 96 624 129 714 129 C 804 129 987 93 1051 157 C 1115 221 1246 404 1246 494;M 1158 494 C 1158 583 1078 731 1015 794 C 952 857 804 813 715 813 C 626 813 446 888 383 825 C 320 762 207 583 207 494 C 207 405 306 211 369 148 C 432 85 625 184 714 184 C 803 184 935 147 998 210 C 1061 273 1158 405 1158 494;M 1271 494 C 1271 583 1090 743 1027 806 C 964 869 804 813 715 813 C 626 813 481 853 418 790 C 355 727 178 583 178 494 C 178 405 355 260 418 197 C 481 134 626 213 715 213 C 804 213 926 156 989 219 C 1052 282 1271 405 1271 494;M 1246 494 C 1246 584 1090 741 1026 805 C 962 869 805 792 715 792 C 625 792 459 877 395 813 C 331 749 145 584 145 494 C 145 404 317 224 381 160 C 445 96 624 129 714 129 C 804 129 987 93 1051 157 C 1115 221 1246 404 1246 494"></animate>
        </path>
    </g>
</svg>